# xmcd
#
# Track frame offsets:
#	150
#	11937
#	22470
#	32669
#	43007
#	55323
#	64017
#	76083
#
# Disc length: 1146 seconds
#
# Revision: 0
# Processed by: cddbd v1.5.2PL0 Copyright (c) Steve Scherf et al.
# Submitted via: audiograbber 1.83.01
#
DISCID=67047808
DTITLE=Cubby Checker - Twist doch mal mit mir BF 15 339
DYEAR=1900
DGENRE=Rock'n'Roll
TTITLE0=Baby Kiss Kiss Kiss
TTITLE1=Twist doch mal mit mir (Twistin' 'Round The World)
TTITLE2=Holla-Hi, Holla-Ho (Fanny Honey)
TTITLE3=Der Twist beginnt (Let's Twist Again)
TTITLE4=Troola Troola Troola (Good Old Schwäb'sche Eisenbahn)
TTITLE5=Autobahn Baby
TTITLE6=Twist mit mir (Muss i denn)
TTITLE7=Twist Marie
EXTD=
EXTT0=
EXTT1=
EXTT2=
EXTT3=
EXTT4=
EXTT5=
EXTT6=
EXTT7=
PLAYORDER=
